<svg xmlns="http://www.w3.org/2000/svg" viewBox="0 0 858.4 782.7"><defs><style>.a,.c,.e,.f{fill:none;stroke-linecap:round;stroke-miterlimit:10;}.a,.f{stroke:#009688;}.a,.c{stroke-width:5px;}.b{fill:#009688;}.c,.e{stroke:#d13849;}.d{fill:#d13849;}.e,.f{stroke-width:4px;}</style></defs><title>Asset 4</title><line class="a" x1="202.2" y1="99.7" x2="202.2" y2="41.1"/><polygon class="b" points="213.2 54.1 202.2 43.1 191.1 54.1 191.1 44.7 202.2 33.7 213.2 44.7 213.2 54.1"/><line class="c" x1="202.2" y1="393.7" x2="202.2" y2="301.1"/><polygon class="d" points="213.2 314.1 202.2 303.1 191.1 314.1 191.1 304.7 202.2 293.7 213.2 304.7 213.2 314.1"/><line class="e" x1="229" y1="388" x2="430.2" y2="388"/><polygon class="d" points="241 398.1 230.8 388 241 377.8 232.3 377.8 222.2 388 232.3 398.1 241 398.1"/><line class="f" x1="449.3" y1="399" x2="247.2" y2="399"/><polygon class="b" points="437.4 388.8 447.5 399 437.4 409.1 446 409.1 456.2 399 446 388.8 437.4 388.8"/><line class="e" x1="76.4" y1="388" x2="39.1" y2="388"/><polygon class="d" points="49.5 379.1 40.6 388 49.5 396.8 42 396.8 33.2 388 42 379.1 49.5 379.1"/><line class="f" x1="54.7" y1="399" x2="92.2" y2="399"/><polygon class="b" points="81.9 407.8 90.7 399 81.9 390.1 89.4 390.1 98.2 399 89.4 407.8 81.9 407.8"/><line class="c" x1="12.7" y1="745.7" x2="12.7" y2="448.1"/><polygon class="d" points="23.7 461.1 12.7 450.1 1.7 461.1 1.7 451.7 12.7 440.7 23.7 451.7 23.7 461.1"/><line class="c" x1="169.2" y1="771.7" x2="39.7" y2="771.7"/><polygon class="d" points="52.6 760.7 41.6 771.7 52.6 782.7 43.2 782.7 32.2 771.7 43.2 760.7 52.6 760.7"/><line class="f" x1="197.2" y1="452.2" x2="197.2" y2="741.8"/><polygon class="b" points="188.4 731.4 197.2 740.2 206 731.4 206 738.9 197.2 747.7 188.4 738.9 188.4 731.4"/><line class="e" x1="208.2" y1="725.2" x2="208.2" y2="435.7"/><polygon class="d" points="217 446 208.2 437.2 199.4 446 199.4 438.5 208.2 429.7 217 438.5 217 446"/><line class="c" x1="827.9" y1="771.7" x2="244.1" y2="771.7"/><polygon class="d" points="257.1 760.7 246 771.7 257.1 782.7 247.7 782.7 236.7 771.7 247.7 760.7 257.1 760.7"/><line class="c" x1="847.3" y1="421.7" x2="847.3" y2="740.3"/><polygon class="d" points="836.3 727.3 847.3 738.4 858.4 727.3 858.4 736.7 847.3 747.7 836.3 736.7 836.3 727.3"/><line class="e" x1="783.2" y1="388" x2="700.1" y2="388"/><polygon class="d" points="710.5 379.1 701.6 388 710.5 396.8 703 396.8 694.2 388 703 379.1 710.5 379.1"/><line class="f" x1="717.2" y1="399" x2="800.2" y2="399"/><polygon class="b" points="789.9 407.8 798.7 399 789.9 390.1 797.4 390.1 806.2 399 797.4 407.8 789.9 407.8"/><line class="c" x1="847.3" y1="37.7" x2="847.3" y2="340.3"/><polygon class="d" points="836.3 327.3 847.3 338.4 858.4 327.3 858.4 336.7 847.3 347.7 836.3 336.7 836.3 327.3"/><line class="c" x1="246.2" y1="12.7" x2="815.7" y2="12.7"/><polygon class="d" points="802.8 23.7 813.8 12.7 802.8 1.7 812.1 1.7 823.2 12.7 812.1 23.7 802.8 23.7"/><line class="a" x1="41.7" y1="12.7" x2="167.2" y2="12.7"/><polygon class="b" points="56.7 25.4 44 12.7 56.7 0 45.9 0 33.2 12.7 45.9 25.4 56.7 25.4"/><line class="a" x1="12.7" y1="348.1" x2="12.7" y2="45.7"/><polygon class="b" points="25.4 333.2 12.7 345.9 0 333.2 0 344 12.7 356.7 25.4 344 25.4 333.2"/></svg>